<mxfile host="app.diagrams.net" modified="2020-03-13T03:46:40.517Z" agent="Mozilla/5.0 (Windows NT 10.0; Win64; x64) AppleWebKit/537.36 (KHTML, like Gecko) Chrome/80.0.3987.132 Safari/537.36" etag="S0K5erz5evfN1iLTc2i4" version="12.8.4" type="github">
  <diagram id="EEnD-7NfRI1h0xLCHahK" name="Page-1">
    <mxGraphModel dx="1038" dy="548" grid="1" gridSize="10" guides="1" tooltips="1" connect="1" arrows="1" fold="1" page="1" pageScale="1" pageWidth="827" pageHeight="1169" math="0" shadow="0">
      <root>
        <mxCell id="0" />
        <mxCell id="1" parent="0" />
        <mxCell id="A-qeFSUETJjmGQNH4lLu-3" value="" style="html=1;points=[];perimeter=orthogonalPerimeter;" parent="1" vertex="1">
          <mxGeometry x="330" y="180" width="20" height="210" as="geometry" />
        </mxCell>
        <mxCell id="A-qeFSUETJjmGQNH4lLu-5" value="" style="verticalLabelPosition=bottom;verticalAlign=top;html=1;shape=mxgraph.flowchart.on-page_reference;fillColor=#ffe6cc;strokeColor=#d79b00;" parent="1" vertex="1">
          <mxGeometry x="335" y="190" width="10" height="10" as="geometry" />
        </mxCell>
        <mxCell id="A-qeFSUETJjmGQNH4lLu-7" value="" style="verticalLabelPosition=bottom;verticalAlign=top;html=1;shape=mxgraph.flowchart.on-page_reference;fillColor=#ffe6cc;strokeColor=#d79b00;" parent="1" vertex="1">
          <mxGeometry x="335" y="220" width="10" height="10" as="geometry" />
        </mxCell>
        <mxCell id="A-qeFSUETJjmGQNH4lLu-18" value="" style="verticalLabelPosition=bottom;verticalAlign=top;html=1;shape=mxgraph.flowchart.on-page_reference;fillColor=#ffe6cc;strokeColor=#d79b00;" parent="1" vertex="1">
          <mxGeometry x="335" y="250" width="10" height="10" as="geometry" />
        </mxCell>
        <mxCell id="A-qeFSUETJjmGQNH4lLu-27" value="" style="verticalLabelPosition=bottom;verticalAlign=top;html=1;shape=mxgraph.flowchart.on-page_reference;fillColor=#ffe6cc;strokeColor=#d79b00;" parent="1" vertex="1">
          <mxGeometry x="335" y="280" width="10" height="10" as="geometry" />
        </mxCell>
        <mxCell id="48SxXdiwVWaF_MIqXhoz-1" value="" style="verticalLabelPosition=bottom;verticalAlign=top;html=1;shape=mxgraph.flowchart.on-page_reference;fillColor=#ffe6cc;strokeColor=#d79b00;" vertex="1" parent="1">
          <mxGeometry x="335" y="310" width="10" height="10" as="geometry" />
        </mxCell>
        <mxCell id="48SxXdiwVWaF_MIqXhoz-2" value="" style="verticalLabelPosition=bottom;verticalAlign=top;html=1;shape=mxgraph.flowchart.on-page_reference;fillColor=#ffe6cc;strokeColor=#d79b00;" vertex="1" parent="1">
          <mxGeometry x="335" y="340" width="10" height="10" as="geometry" />
        </mxCell>
        <mxCell id="48SxXdiwVWaF_MIqXhoz-3" value="" style="verticalLabelPosition=bottom;verticalAlign=top;html=1;shape=mxgraph.flowchart.on-page_reference;fillColor=#ffe6cc;strokeColor=#d79b00;" vertex="1" parent="1">
          <mxGeometry x="335" y="370" width="10" height="10" as="geometry" />
        </mxCell>
        <mxCell id="48SxXdiwVWaF_MIqXhoz-5" value="" style="ellipse;whiteSpace=wrap;html=1;" vertex="1" parent="1">
          <mxGeometry x="325" y="185" width="30" height="80" as="geometry" />
        </mxCell>
        <mxCell id="48SxXdiwVWaF_MIqXhoz-7" value="" style="verticalLabelPosition=bottom;verticalAlign=top;html=1;shape=mxgraph.flowchart.on-page_reference;fillColor=#ffe6cc;strokeColor=#d79b00;" vertex="1" parent="1">
          <mxGeometry x="335" y="190" width="10" height="10" as="geometry" />
        </mxCell>
        <mxCell id="48SxXdiwVWaF_MIqXhoz-8" value="" style="verticalLabelPosition=bottom;verticalAlign=top;html=1;shape=mxgraph.flowchart.on-page_reference;fillColor=#ffe6cc;strokeColor=#d79b00;" vertex="1" parent="1">
          <mxGeometry x="335" y="220" width="10" height="10" as="geometry" />
        </mxCell>
        <mxCell id="48SxXdiwVWaF_MIqXhoz-9" value="" style="verticalLabelPosition=bottom;verticalAlign=top;html=1;shape=mxgraph.flowchart.on-page_reference;fillColor=#ffe6cc;strokeColor=#d79b00;" vertex="1" parent="1">
          <mxGeometry x="335" y="250" width="10" height="10" as="geometry" />
        </mxCell>
      </root>
    </mxGraphModel>
  </diagram>
</mxfile>
